<?xml version="1.0" standalone="no"?>
<!DOCTYPE svg PUBLIC "-//W3C//DTD SVG 20010904//EN"
 "http://www.w3.org/TR/2001/REC-SVG-20010904/DTD/svg10.dtd">
<svg version="1.0" xmlns="http://www.w3.org/2000/svg"
 width="512.000000pt" height="512.000000pt" viewBox="0 0 512.000000 512.000000"
 preserveAspectRatio="xMidYMid meet">
<metadata>
Created by potrace 1.11, written by Peter Selinger 2001-2013
</metadata>
<g transform="translate(0.000000,512.000000) scale(0.100000,-0.100000)"
fill="#000000" stroke="none">
<path d="M1924 2600 l0 -1630 416 0 416 0 -1 724 0 724 27 -22 c31 -25 464
-383 493 -408 11 -9 274 -227 585 -484 311 -257 567 -470 570 -474 3 -4 12
-11 22 -16 9 -5 34 -25 55 -44 71 -64 123 -101 123 -88 1 15 1 3182 0 3216 l0
22 -410 0 -410 0 0 -721 0 -721 -50 40 c-27 22 -69 56 -92 75 -24 20 -167 138
-318 262 -151 125 -295 244 -320 265 -25 21 -90 74 -145 119 -55 46 -109 90
-120 99 -11 9 -45 37 -75 62 -30 25 -57 47 -60 50 -4 4 -108 90 -190 157 -28
23 -165 136 -210 173 -138 115 -302 250 -304 250 -1 0 -2 -733 -2 -1630z"/>
<path d="M500 2545 l0 -1575 398 0 398 0 0 1575 0 1575 -398 0 -398 0 0 -1575z"/>
</g>
</svg>
